<svg width="133" height="32" viewBox="0 0 133 32" fill="none" xmlns="http://www.w3.org/2000/svg">
<path fill-rule="evenodd" clip-rule="evenodd" d="M21.751 14.8001L5.96704 31.7561C5.86504 31.8661 5.68104 31.7811 5.70004 31.6311L7.46004 17.2681H0.156045C0.0200446 17.2681 -0.0509615 17.1061 0.0420385 17.0061L15.826 0.0500887C15.929 -0.0599113 16.112 0.0250887 16.094 0.175089L14.334 14.5381H21.637C21.773 14.5381 21.844 14.7001 21.751 14.8001ZM79.4 2.55509V29.6501H75.37V16.1321H72.77V29.1361H68.8V2.7051H72.771V12.0291H75.371V2.55509H79.4ZM94.7 18.4581C95.457 18.4581 96.193 18.4631 96.91 18.4731C97.624 18.4851 98.254 18.5091 98.8 18.5481C101.057 18.6861 102.807 19.1981 104.046 20.0811C105.286 20.9631 105.906 22.2881 105.906 24.0541C105.906 25.8201 105.286 27.1401 104.046 28.0141C102.806 28.8861 101.056 29.4021 98.799 29.5621C98.274 29.6011 97.654 29.6251 96.939 29.6351C96.222 29.6451 95.481 29.6491 94.716 29.6491C93.949 29.6491 93.208 29.6441 92.492 29.6351C91.777 29.6251 91.157 29.6011 90.632 29.5621C88.374 29.4021 86.625 28.8861 85.384 28.0141C84.144 27.1401 83.524 25.8201 83.524 24.0541C83.524 22.2881 84.144 20.9701 85.384 20.0961C86.625 19.2241 88.374 18.7081 90.632 18.5481C91.157 18.5281 91.777 18.5091 92.492 18.4881C93.208 18.4681 93.944 18.4581 94.7 18.4581ZM133 2.55509V29.6501H128.877V16.3431H124.754V12.4221H128.877V2.55509H133ZM34.8451 20.2251V25.4101H51.7181V29.0601H30.5131V20.2251H34.8451ZM67.032 3.14511C66.788 5.87311 66.376 8.41309 65.795 10.7641C65.215 13.1141 64.528 15.3091 63.734 17.3441C62.939 19.3831 62.0641 21.2691 61.1071 23.0111C60.1491 24.7511 59.1731 26.3741 58.1751 27.8821L54.6631 25.7121C55.6191 24.3511 56.5161 22.9091 57.3511 21.3931C58.1851 19.8751 58.9341 18.3141 59.5951 16.7031C60.2561 15.0961 60.8271 13.4681 61.3051 11.8181C61.7841 10.1701 62.145 8.54008 62.39 6.93209H55.4271V3.1441L67.032 3.14511ZM124.193 3.14511V6.87909H114.845V12.7201H123.538V16.3351H114.845V23.4091L127.11 22.9291V26.4821L110.618 27.2931V3.1441L124.193 3.14511ZM94.715 21.9701C94.029 21.9701 93.359 21.9801 92.703 21.9991C92.048 22.0211 91.468 22.0491 90.963 22.0891C89.936 22.1881 89.195 22.4061 88.741 22.7451C88.287 23.0811 88.061 23.5181 88.061 24.0531C88.061 24.5911 88.287 25.0261 88.741 25.3631C89.195 25.7001 89.936 25.9181 90.963 26.0171C91.468 26.0581 92.048 26.0871 92.703 26.1071C93.359 26.1271 94.029 26.1361 94.715 26.1361C95.4 26.1361 96.07 26.1261 96.726 26.1071C97.381 26.0871 97.96 26.0581 98.465 26.0171C99.494 25.9171 100.235 25.7001 100.689 25.3631C101.142 25.0261 101.369 24.5911 101.369 24.0531C101.369 23.5181 101.142 23.0811 100.689 22.7451C100.235 22.4051 99.494 22.1881 98.465 22.0881C97.96 22.0501 97.381 22.0211 96.726 21.9981C96.07 21.9791 95.4 21.9701 94.715 21.9701ZM51.7181 2.55509V21.9921H47.4591V12.3941H43.5011V18.2071H28.746V2.8561H33.0051V7.00609H39.2431V2.8561H43.5001V8.45909H47.4581V2.55509H51.7181ZM98.352 3.14511V6.86508H93.408C93.042 7.54808 92.635 8.24809 92.177 8.97009C92.103 9.08809 92.017 9.20408 91.942 9.32008L99.427 14.2181L97.069 17.4801L89.837 12.2751C89.8 12.3231 89.767 12.3711 89.73 12.4181C88.835 13.5551 87.89 14.6501 86.896 15.6981C85.901 16.7451 84.916 17.6641 83.943 18.4581L81.168 15.6511C81.944 15.0401 82.719 14.3451 83.495 13.5611C84.271 12.7791 85.021 11.9541 85.747 11.0911C86.473 10.2271 87.149 9.33308 87.777 8.40708C88.125 7.89108 88.442 7.37708 88.737 6.86508H82.6V3.14511H98.352ZM104.77 2.55509V8.10009H107.673V12.0601H104.77V18.4601H100.605V2.55409L104.77 2.55509ZM39.2431 10.5781H33.0051V14.5751H39.2431V10.5781Z" fill="#D80C18"/>
</svg>
